<svg width="117" height="108" viewBox="0 0 117 108" fill="none" xmlns="http://www.w3.org/2000/svg">
<path d="M4.87622 31.8521C6.84061 25.5291 8.77101 19.1925 10.7966 12.8898C11.4491 10.8477 12.2172 8.82601 13.1484 6.89926C16.0576 0.854405 21.339 -1.60831 27.8235 1.08507C38.6514 5.57631 49.6357 9.97257 59.7975 15.7393C81.8544 28.236 99.9757 45.3597 114.95 65.7874C115.548 66.6015 116.078 67.4563 117.003 68.8335C111.109 73.6097 105.42 78.5555 99.3707 83.0128C95.6663 85.7401 91.0442 84.4782 88.0942 80.4416C81.4533 71.3641 73.9764 63.0736 65.4188 55.7601C51.3894 43.779 35.4636 35.1561 18.0152 29.3147C13.4067 27.7747 9.09727 28.5685 4.88302 31.8521H4.87622Z" fill="#020202"/>
<path d="M0.0501176 81.6832C0.0501176 77.66 -0.079029 74.5528 0.0773064 71.4591C0.362788 65.8214 0.716242 60.1903 1.21244 54.5661C1.80379 47.9514 6.12001 44.7967 12.455 46.5606C40.1059 54.2812 61.1364 70.6857 75.9271 95.1772C76.3214 95.8285 76.5457 96.5816 77.137 97.9452C69.4358 101.236 61.9997 104.75 54.3053 107.572C50.492 108.97 47.4129 106.677 45.1563 103.4C37.3123 92.0225 26.9534 83.8067 14.1067 78.6098C9.0292 76.561 4.50907 76.3439 0.0569148 81.6696L0.0501176 81.6832Z" fill="#020202"/>
<path d="M36.9656 52.4155C30.0189 49.6271 22.7391 46.6149 15.3913 43.7858C11.7616 42.3882 8.00278 41.6012 4.40027 44.1928C2.85731 37.11 9.06315 30.5902 15.9555 32.2117C20.965 33.3922 25.7434 35.5835 30.583 37.4356C31.1812 37.6663 31.6978 38.5008 31.9561 39.1724C33.7369 43.7586 35.443 48.3652 36.9656 52.4087V52.4155Z" fill="#020202"/>
</svg>
